<?xml version="1.0" encoding="UTF-8"?>
<svg width="311.811pt" viewBox="0 0 311.811 141.732" xmlns:inkscape="http://www.inkscape.org/namespaces/inkscape" xmlns:xlink="http://www.w3.org/1999/xlink" xmlns="http://www.w3.org/2000/svg" height="141.732pt" version="1.1">
 <defs>
  <path id="GlEGDragonCaps24" d="M7.68562 -4.38484 L7.87109 -4.17969 C7.53255 -3.95188 7.28844 -3.47661 7.13875 -2.75391 L6.70906 2.3925 C7.02802 2.49021 7.76042 2.6237 8.90625 2.79297 C9.10812 2.90359 9.20906 3.04031 9.20906 3.20313 L8.84766 3.30078 L8.72078 3.30078 L8.2325 3.20313 L6.89453 3.20313 L6.83594 3.25188 L6.77734 3.25188 L6.70906 5.39063 L6.70906 7.63672 C6.70906 8.85411 6.97271 9.59953 7.5 9.87297 C7.46094 9.97724 7.34052 10.0294 7.13875 10.0294 L3.42781 10.0781 L2.93953 9.98047 L2.93953 9.87297 C2.93953 9.74932 3.30411 9.66469 4.03328 9.61906 C4.39786 9.61906 4.58016 7.70177 4.58016 3.86719 L4.52156 3.81828 L4.46297 3.81828 C4.11141 3.81828 3.01438 4.51167 1.17188 5.89844 L0.986406 5.95703 C0.784531 5.88536 0.683594 5.7812 0.683594 5.64453 C0.683594 5.41661 1.19141 3.8899 2.20703 1.06438 C2.77349 -0.719479 3.05672 -1.85552 3.05672 -2.34375 C3.01766 -2.89063 2.89719 -3.16406 2.69531 -3.16406 L2.20703 -3.16406 C1.79693 -3.11854 1.59187 -2.96557 1.59187 -2.70516 L1.71875 -2.40234 C1.67969 -2.19401 1.61786 -2.08984 1.53328 -2.08984 C0.804115 -2.36328 0.439531 -2.62047 0.439531 -2.86141 C0.595781 -3.81193 1.02219 -4.28719 1.71875 -4.28719 C2.68229 -4.28719 3.35286 -3.55474 3.73047 -2.08984 L3.73047 -1.48438 C3.73047 -0.442708 3.34313 1.13604 2.56844 3.25188 L2.69531 3.25188 C4.07552 2.97198 4.76563 2.71807 4.76563 2.49016 L4.94141 -2.59766 C4.94141 -3.17057 4.78193 -3.58073 4.46297 -3.82813 L4.46297 -3.92578 C6.18172 -4.03651 7.25594 -4.18953 7.68562 -4.38484 Z"/>
  <path id="GlEGDragonCaps22" d="M4.74609 -4.02344 C6.7513 -4.02344 8.09245 -3.27474 8.76953 -1.77734 C8.8737 -1.4388 8.92578 -1.06771 8.92578 -0.664063 C8.09245 1.76427 7.19401 3.60021 6.23047 4.84375 C5.20182 6.38021 4.6875 7.19401 4.6875 7.28516 C5.75521 8.57422 6.83922 9.21875 7.93953 9.21875 C8.59703 9.21875 8.92578 9.03318 8.92578 8.66203 C8.92578 8.25839 8.61656 7.93615 7.99812 7.69531 L7.93953 7.63672 L7.93953 7.53906 C7.93953 7.46094 8.03068 7.40885 8.21297 7.38281 C9.75589 7.90365 10.5273 8.49932 10.5273 9.16984 C10.5273 9.50839 10.0684 9.93161 9.15047 10.4395 L8.21297 10.5958 C7.26245 10.5958 5.94083 9.88286 4.24812 8.45703 L4.03328 8.34953 C3.93557 8.34953 3.62307 8.69135 3.09578 9.375 C2.54234 9.77865 2.11917 9.98047 1.82625 9.98047 C0.940833 9.98047 0.42651 9.48891 0.283281 8.50578 L0.283281 8.34953 C0.517656 6.99536 1.10359 6.31828 2.04109 6.31828 L2.20703 6.31828 C2.53255 6.31828 3.12177 6.4713 3.97469 6.77734 L4.03328 6.77734 C4.6062 6.11328 5.42974 4.88932 6.50391 3.10547 C7.42193 1.38016 7.88094 0.244063 7.88094 -0.302812 L7.88094 -0.410156 C7.88094 -1.26307 7.25917 -1.87182 6.01563 -2.23641 L5.07813 -2.23641 C4.01042 -2.23641 3.47656 -1.9825 3.47656 -1.47469 L3.47656 -1.32813 C3.47656 -1.11979 3.56771 -1.01563 3.75 -1.01563 L4.03328 -1.26953 C4.17651 -1.0938 4.24812 -0.908281 4.24812 -0.712969 C4.12437 -0.576198 3.86719 -0.47526 3.47656 -0.410156 C2.89063 -0.410156 2.39583 -0.849635 1.99219 -1.72859 L1.93359 -2.04109 C1.93359 -2.69859 2.3763 -3.23896 3.26172 -3.66219 L4.74609 -4.02344 L4.74609 -4.02344 Z M1.27937 8.80859 L1.27937 8.91594 C1.29885 9.0201 1.44531 9.07219 1.71875 9.07219 L2.04109 9.07219 C2.55536 8.72063 2.94271 8.3463 3.20313 7.94922 L3.20313 7.90031 C3.17708 7.79615 3.03063 7.74406 2.76375 7.74406 L2.37312 7.74406 C1.95646 7.74406 1.59187 8.09891 1.27937 8.80859 Z"/>
  <path id="GlDejaVuSans3" d=""/>
  <path id="GlEGDragonCaps49" d="M8.28125 -4.89266 L8.28125 -4.85359 C8.04688 -4.46943 7.92969 -4.18297 7.92969 -3.99422 L7.92969 -3.83797 L8.00781 -3.83797 C8.3724 -4.30672 8.75 -4.54109 9.14063 -4.54109 L9.29688 -4.54109 C9.49219 -4.54109 9.59635 -4.50203 9.60938 -4.42391 C9.60938 -4.38484 9.42708 -4.28068 9.0625 -4.11141 C8.88021 -3.86401 8.76302 -3.65568 8.71094 -3.48641 L8.75 -3.44734 L8.78906 -3.44734 L9.17969 -3.60359 C9.77865 -3.49286 10.0781 -3.06318 10.0781 -2.31453 C10.0781 -1.90432 9.92188 -1.61786 9.60938 -1.45516 C9.3425 -1.45516 9.12115 -1.19474 8.94531 -0.673906 L8.98438 -0.634844 C9.6224 -1.04495 10.3255 -1.74807 11.0938 -2.74422 C11.224 -2.95255 11.2891 -3.13484 11.2891 -3.29109 C11.2891 -3.36266 11.1589 -3.49286 10.8984 -3.68172 L10.8984 -3.75984 C10.8984 -3.83141 11.0677 -3.92255 11.4063 -4.03328 C11.862 -4.03328 12.3958 -3.60359 13.0078 -2.74422 C13.2682 -2.23641 13.4766 -1.53328 13.6328 -0.634844 C13.8411 0.471927 13.9453 1.30526 13.9453 1.86516 C13.9453 2.45109 13.6849 4.3912 13.1641 7.68547 C13.112 7.87432 13.0859 8.1738 13.0859 8.58391 C13.0859 9.33911 13.2422 9.86 13.5547 10.1466 L13.5547 10.1856 L13.4766 10.2637 C13.2552 10.2637 12.9167 9.72984 12.4609 8.66203 C12.3307 8.14776 12.2656 7.5488 12.2656 6.86516 L12.2656 6.55266 L12.2266 6.55266 L11.25 7.56828 L11.1719 7.56828 L11.1719 7.49016 C11.6406 6.58526 11.875 5.3613 11.875 3.81828 C11.8555 3.27141 11.8034 2.99797 11.7188 2.99797 L11.6797 2.99797 C11.6016 2.99797 11.3021 3.70109 10.7813 5.10734 L10.7422 5.10734 C10.6901 5.10734 10.6641 5.06828 10.6641 4.99016 C10.7943 4.25453 10.8594 3.60349 10.8594 3.03703 C10.7357 1.70891 10.5144 1.04484 10.1953 1.04484 L10.1172 1.04484 C10.026 1.04484 9.86979 1.60474 9.64844 2.72453 L9.60938 2.76359 L9.60938 2.80266 L9.53125 2.80266 L9.45313 2.72453 L9.49219 2.29484 C9.42062 1.61776 9.25135 1.27922 8.98438 1.27922 C8.7826 1.27922 8.66542 1.50057 8.63281 1.94328 L8.63281 2.37297 C8.63281 2.42505 8.75 2.52922 8.98438 2.68547 C9.66802 3.40161 10.0456 4.06568 10.1172 4.67766 C10.3516 5.02276 10.4688 5.33526 10.4688 5.61516 L10.4688 5.65422 C10.4688 5.9212 10.2734 6.22068 9.88281 6.55266 L9.84375 6.55266 L9.84375 6.43547 L9.88281 6.16203 L9.84375 6.12297 L9.80469 6.12297 L9.57031 6.24016 L9.57031 6.31828 C9.70052 6.47453 9.76563 6.68286 9.76563 6.94328 L9.76563 7.17766 C9.76563 7.55526 9.57031 8.21932 9.17969 9.16984 L9.17969 9.20891 L9.76563 9.32609 L9.88281 9.32609 L10.3125 8.66203 C10.4883 8.66203 10.6185 8.50578 10.7031 8.19328 L10.7422 8.15422 L10.7813 8.15422 C10.8333 8.25839 10.9115 8.31047 11.0156 8.31047 C11.0352 8.23234 11.0873 8.18026 11.1719 8.15422 C11.4323 8.15422 11.6667 8.5188 11.875 9.24797 C11.7644 9.97724 11.6472 10.3419 11.5234 10.3419 C11.4453 10.3223 11.4063 10.2181 11.4063 10.0294 L11.4063 9.71672 L11.3281 9.63859 L10.9766 10.1466 L10.9375 10.1466 C10.905 9.75583 10.8399 9.56047 10.7422 9.56047 C10.6836 9.56047 10.6185 9.76885 10.5469 10.1856 L10.3906 10.3419 C10.3125 10.3419 10.2734 10.1986 10.2734 9.91203 L10.1563 9.91203 C10.0196 10.0163 9.9024 10.0684 9.80469 10.0684 L9.6875 10.0684 C9.4401 10.0684 9.15365 10.0293 8.82813 9.95109 L8.4375 9.99016 C8.24875 9.99016 8.10552 9.87297 8.00781 9.63859 L8.28125 8.62297 L8.28125 8.50578 L8.20313 8.42766 L8.16406 8.42766 C7.83854 9.31307 7.5 9.75578 7.14844 9.75578 L6.21094 10.0684 L5.35156 9.83391 L5.19531 9.83391 C5.09115 9.83391 5.03906 10.0032 5.03906 10.3419 L5 10.3809 L4.92188 10.3809 C4.85031 10.3809 4.75917 10.2377 4.64844 9.95109 L4.6875 9.91203 L4.6875 9.63859 L4.60938 9.56047 C4.31646 9.56047 4.14719 9.78187 4.10156 10.2247 L3.98438 10.2247 C3.59375 10.0162 3.39844 9.83391 3.39844 9.67766 C3.46354 9.3912 3.59375 9.05266 3.78906 8.66203 L3.39844 8.58391 C2.95573 8.58391 2.73438 8.88339 2.73438 9.48234 C2.53906 10.2637 2.27865 10.6544 1.95313 10.6544 L1.52344 10.8497 C1.42583 10.8497 1.30865 10.7585 1.17188 10.5762 L1.17188 10.5372 L1.64063 10.5762 C1.95313 10.5762 2.17448 10.0163 2.30469 8.89641 L2.30469 8.85734 C1.83594 8.85734 1.4974 8.62297 1.28906 8.15422 L1.05469 4.87297 C0.559896 3.55786 0.3125 2.5813 0.3125 1.94328 C0.130208 1.81307 0.0390625 1.69589 0.0390625 1.59172 C0.0390625 1.35734 0.442708 0.250573 1.25 -1.72859 L1.28906 -1.72859 C1.36073 -1.72859 1.42583 -0.869219 1.48438 0.849531 L1.60156 1.31828 C1.60156 1.56568 1.44531 1.87818 1.13281 2.25578 L1.13281 2.33391 C1.13281 2.86776 1.32813 3.89641 1.71875 5.41984 C1.77083 5.6738 1.79688 6.02536 1.79688 6.47453 L1.79688 7.80266 C1.79688 8.01755 1.95313 8.16078 2.26563 8.23234 L2.38281 8.07609 L2.38281 7.91984 L1.79688 2.84172 L1.67969 0.224531 C1.67969 -1.70255 2.26563 -2.99161 3.4375 -3.64266 L3.75 -3.68172 L4.10156 -3.60359 L4.10156 -3.52547 C3.84115 -3.31714 3.71094 -3.18693 3.71094 -3.13484 L3.71094 -3.01766 C3.71094 -2.75068 4.11458 -2.32099 4.92188 -1.72859 L5 -1.72859 L5 -1.92391 L4.96094 -1.96297 C4.96094 -2.21036 5.18229 -2.36661 5.625 -2.43172 C6.43229 -2.69214 6.83594 -2.96557 6.83594 -3.25203 C7.07688 -3.49286 7.37635 -3.96161 7.73438 -4.65828 C7.93625 -4.81453 8.11854 -4.89266 8.28125 -4.89266 L8.28125 -4.89266 Z M7.10938 -2.54891 L7.10938 -2.50984 L7.26563 -2.50984 C7.57813 -2.50984 7.73438 -2.65307 7.73438 -2.93953 L7.61719 -3.05672 L7.57813 -3.05672 C7.26563 -2.97203 7.10938 -2.80276 7.10938 -2.54891 L7.10938 -2.54891 Z M6.21094 -1.37703 C6.21094 -1.31193 6.34115 -1.1687 6.60156 -0.947344 C6.54948 -0.843177 6.47135 -0.791094 6.36719 -0.791094 L6.17188 -0.830156 L6.13281 -0.791094 C6.25 -0.556719 6.39323 -0.374427 6.5625 -0.244219 L7.03125 -1.37703 L7.03125 -1.41609 L6.83594 -1.61141 L6.64063 -1.61141 C6.35417 -1.5788 6.21094 -1.50068 6.21094 -1.37703 L6.21094 -1.37703 Z M5.54688 -1.33797 L5.54688 -1.25984 C5.5925 -1.15568 5.68365 -1.10359 5.82031 -1.10359 L5.82031 -1.14266 C5.76823 -1.25984 5.71615 -1.32495 5.66406 -1.33797 L5.54688 -1.33797 L5.54688 -1.33797 Z M7.92969 -0.283281 L7.92969 -0.166094 C7.96875 0.120365 8.03385 0.263594 8.125 0.263594 C8.24219 0.244115 8.46354 0.00973958 8.78906 -0.439531 L8.71094 -0.595781 L8.82813 -1.06453 L8.78906 -1.06453 C8.52865 -0.673906 8.33333 -0.439531 8.20313 -0.361406 L8.125 -0.361406 L8.08594 -0.478594 C8.24219 -0.888698 8.32031 -1.14911 8.32031 -1.25984 L8.24219 -1.25984 C8.05344 -1.25984 7.94927 -0.934323 7.92969 -0.283281 L7.92969 -0.283281 Z M5.39063 2.68547 L5.3125 2.68547 C5.09115 2.08651 4.94792 1.78703 4.88281 1.78703 L4.84375 1.78703 C4.43365 1.78703 4.19927 2.56828 4.14063 4.13078 C4.14063 4.59953 4.10156 4.83391 4.02344 4.83391 L3.98438 4.83391 L3.51563 3.07609 L3.4375 3.07609 C3.33333 3.40818 3.28125 3.88995 3.28125 4.52141 C3.54823 6.73495 3.7826 7.84172 3.98438 7.84172 C4.16667 7.84172 4.59635 8.08911 5.27344 8.58391 L5.50781 8.66203 L5.58594 8.66203 L5.58594 8.54484 C5.39719 8.26495 5.25396 7.87432 5.15625 7.37297 C5.15625 6.53964 5.44271 6.12297 6.01563 6.12297 L6.01563 6.08391 C5.83333 5.53057 5.74219 4.93161 5.74219 4.28703 L5.70313 4.28703 C5.50135 4.46932 5.33208 4.83391 5.19531 5.38078 L5.19531 5.49797 L5.42969 6.00578 L5.39063 6.00578 L4.96094 5.84953 L4.96094 5.92766 L5 6.39641 L4.72656 6.35734 L4.72656 6.39641 L4.88281 6.86516 L4.76563 6.86516 C4.375 6.57224 4.17969 6.27276 4.17969 5.96672 C4.17969 5.60214 4.59635 4.7037 5.42969 3.27141 C5.89844 2.12557 6.13281 1.47453 6.13281 1.31828 L6.13281 1.27922 L6.05469 1.27922 C5.905 1.27922 5.73573 1.61776 5.54688 2.29484 C5.51438 2.55526 5.46229 2.68547 5.39063 2.68547 L5.39063 2.68547 Z M8.98438 3.89641 L8.98438 4.09172 L9.02344 4.75578 L8.94531 6.04484 L9.375 6.16203 L9.41406 6.16203 C9.48573 6.16203 9.57687 5.99276 9.6875 5.65422 L9.64844 5.61516 L9.60938 5.61516 C9.45969 5.82349 9.31646 5.92766 9.17969 5.92766 L9.14063 5.77141 C9.24479 5.41339 9.29688 5.00974 9.29688 4.56047 L9.29688 4.44328 C9.18625 4.0787 9.08208 3.89641 8.98438 3.89641 L8.98438 3.89641 Z M3.00781 6.66984 L3.00781 7.91984 L3.08594 7.91984 L3.08594 7.95891 C3.45052 7.83526 3.63281 7.75714 3.63281 7.72453 C3.63281 7.64641 3.46354 7.29484 3.125 6.66984 L3.00781 6.66984 L3.00781 6.66984 Z M6.67969 8.89641 L6.67969 9.09172 L6.79688 9.09172 C6.92708 9.03318 6.99219 8.90297 6.99219 8.70109 L6.99219 8.54484 C6.99219 8.40818 6.95313 8.33005 6.875 8.31047 C6.7774 8.31047 6.71229 8.50578 6.67969 8.89641 Z"/>
 </defs>
 <g inkscape:groupmode="layer" id="Fond de page" inkscape:label="Fond de page">
  <g transform="translate(37.5197, 22.749)">
   <use style="fill:#171615;stroke:none;" xlink:href="#GlEGDragonCaps24" transform="matrix(5 0 0 5 0 24.4729)"/>
   <use style="fill:#171615;stroke:none;" xlink:href="#GlEGDragonCaps22" transform="matrix(5 0 0 5 49.5 24.4729)"/>
   <use style="fill:#171615;stroke:none;" xlink:href="#GlDejaVuSans3" transform="matrix(5 0 0 5 103.7 24.4729)"/>
   <use style="fill:#171615;stroke:none;" xlink:href="#GlDejaVuSans3" transform="matrix(5 0 0 5 119.5 24.4729)"/>
   <use style="fill:#171615;stroke:none;" xlink:href="#GlEGDragonCaps49" transform="matrix(5 0 0 5 135.3 24.4729)"/>
   <use style="fill:#171615;stroke:none;" xlink:href="#GlDejaVuSans3" transform="matrix(12 0 0 12 205.1 -45.5271)"/>
   <path style="fill:none; stroke:none;" d="M0 0 L299.979 0 L299.979 119.25 L0 119.25 L0 0 Z"/>
  </g>
 </g>
</svg>
